<svg width="449" height="449" viewBox="0 0 449 449" fill="none" xmlns="http://www.w3.org/2000/svg">
<path d="M200.443 11.874C212.447 -3.958 236.248 -3.95802 248.253 11.874L279.106 52.5639C285.656 61.2024 296.357 65.635 307.097 64.1583L357.686 57.2027C377.369 54.4963 394.199 71.3259 391.493 91.0094L384.537 141.598C383.06 152.338 387.493 163.039 396.131 169.589L436.821 200.443C452.653 212.447 452.653 236.248 436.821 248.253L396.131 279.106C387.493 285.656 383.06 296.357 384.537 307.097L391.493 357.686C394.199 377.369 377.369 394.199 357.686 391.492L307.097 384.537C296.357 383.06 285.656 387.493 279.106 396.131L248.253 436.821C236.248 452.653 212.447 452.653 200.443 436.821L169.589 396.131C163.039 387.493 152.338 383.06 141.598 384.537L91.0096 391.492C71.3261 394.199 54.4964 377.369 57.2028 357.686L64.1584 307.097C65.6351 296.357 61.2025 285.656 52.564 279.106L11.8741 248.253C-3.95788 236.248 -3.95789 212.447 11.8741 200.443L52.564 169.589C61.2025 163.039 65.6351 152.338 64.1584 141.598L57.2028 91.0095C54.4964 71.326 71.3261 54.4963 91.0096 57.2027L141.598 64.1583C152.338 65.635 163.039 61.2024 169.589 52.5639L200.443 11.874Z" fill="#B1FD03"/>
</svg>
